<?xml version="1.0" encoding="UTF-8"?>
<svg id="Layer_1" data-name="Layer 1" xmlns="http://www.w3.org/2000/svg" xmlns:xlink="http://www.w3.org/1999/xlink" viewBox="0 0 348.28 365.24">
  <defs>
    <style>
      .cls-1, .cls-2 {
        fill: none;
      }

      .cls-3 {
        fill: #ef4325;
        font-family: CCMonsterMash, CCMonsterMash;
        font-size: 60.01px;
        stroke: #2f2f8f;
      }

      .cls-3, .cls-4, .cls-2, .cls-5, .cls-6 {
        stroke-miterlimit: 10;
      }

      .cls-7 {
        clip-path: url(#clippath);
      }

      .cls-8 {
        fill: #c8942c;
      }

      .cls-4 {
        fill: #623d98;
        stroke: #7f459b;
      }

      .cls-2 {
        stroke: #ed1e25;
        stroke-width: 2px;
      }

      .cls-5 {
        fill: #feeac9;
        stroke: #231f20;
        stroke-width: 6px;
      }

      .cls-6 {
        fill: #fff;
        font-family: Gin-Regular, Gin;
        font-size: 88.3px;
        stroke: #ef4325;
      }
    </style>
    <clipPath id="clippath">
      <ellipse class="cls-1" cx="174.14" cy="195.59" rx="161.37" ry="166.65"/>
    </clipPath>
  </defs>
  <g>
    <ellipse class="cls-5" cx="174.14" cy="195.59" rx="161.37" ry="166.65"/>
    <g class="cls-7">
      <g>
        <path class="cls-2" d="M109.03,54.45s-.25,.74-.89,1.82c-.63,1.08-1.65,2.49-3.22,3.81-1.56,1.31-3.69,2.52-6.59,3.1-2.9,.57-6.56,.53-11.19-.89,0,0-.3,.87-1.01,2.11-.71,1.24-1.84,2.85-3.54,4.31-1.7,1.46-3.97,2.77-7.01,3.34-3.04,.55-6.86,.38-11.64-1.46"/>
        <path class="cls-2" d="M111.37,60.6s-.81,3.14-3.83,5.93c-3.04,2.73-8.34,5.21-17.72,2.79,0,0-1.02,3.54-4.32,6.57-1.65,1.51-3.89,2.89-6.9,3.55-3.01,.65-6.82,.65-11.62-.88"/>
        <path class="cls-2" d="M114.06,66.98s-.17,.82-.71,2c-.54,1.18-1.44,2.73-2.92,4.17-2.95,2.86-8.25,5.32-17.68,3.12,0,0-.93,3.58-4.18,6.64-1.63,1.53-3.84,2.93-6.84,3.67-3,.73-6.78,.81-11.56-.46"/>
        <path class="cls-2" d="M117.01,73.6s-.15,.85-.66,2.07c-.51,1.23-1.38,2.82-2.85,4.28-2.92,2.94-8.23,5.32-17.68,3.22,0,0-.88,3.59-4.13,6.66-3.26,3.04-8.84,5.64-18.33,3.47"/>
        <path class="cls-2" d="M120.13,80.5s-.54,3.53-3.47,6.49c-2.93,2.96-8.28,5.2-17.73,3.06,0,0-.89,3.6-4.17,6.62-3.28,3.02-8.93,5.45-18.3,3.5"/>
        <path class="cls-2" d="M123.34,87.73s-.13,.9-.64,2.19c-.51,1.28-1.39,2.92-2.88,4.39-1.49,1.47-3.59,2.73-6.49,3.31-2.9,.58-6.61,.48-11.32-.66,0,0-.94,3.6-4.3,6.52-3.37,2.95-9.07,5.15-18.31,3.26"/>
        <path class="cls-2" d="M126.48,95.35s-.66,3.75-3.73,6.58c-3.06,2.88-8.59,4.68-17.85,2.04,0,0-1.1,3.59-4.55,6.39-3.44,2.85-9.3,4.77-18.33,2.74"/>
        <path class="cls-2" d="M129.42,103.19s-.17,.92-.74,2.18c-.28,.63-.66,1.34-1.17,2.07-.53,.73-1.18,1.48-1.98,2.16-1.6,1.37-3.78,2.49-6.71,2.87-1.46,.19-3.11,.19-4.96-.04-1.86-.23-3.99-.67-6.32-1.38,0,0-.28,.88-1,2.09-.36,.61-.83,1.29-1.43,2-.62,.71-1.37,1.44-2.27,2.11-1.79,1.35-4.15,2.49-7.18,2.96-1.52,.24-3.2,.31-5.05,.17-1.87-.13-3.98-.44-6.25-1"/>
        <path class="cls-2" d="M132.1,111.12s-.88,3.68-4.12,6.28c-3.23,2.66-8.87,4.08-18.01,.83,0,0-1.3,3.49-4.92,6.05-3.61,2.6-9.59,4.12-18.53,1.49"/>
        <path class="cls-2" d="M134.6,119.1s-1.06,3.65-4.41,6.16c-3.35,2.55-9.03,3.78-17.94,.2,0,0-1.47,3.46-5.21,5.9-3.72,2.49-9.75,3.81-18.49,.84"/>
        <path class="cls-2" d="M136.68,127.19s-1.08,3.59-4.48,5.97c-3.46,2.44-9.08,3.46-18.08-.37,0,0-1.49,3.39-5.26,5.69-3.83,2.37-9.8,3.46-18.65,.25"/>
        <path class="cls-2" d="M138.57,135.32s-1.26,3.56-4.76,5.83c-3.49,2.32-9.24,3.17-17.97-.98,0,0-1.66,3.35-5.53,5.53-3.86,2.23-9.96,3.15-18.56-.39"/>
        <path class="cls-2" d="M140.2,143.51s-.31,.87-1.09,2.02c-.81,1.15-2.07,2.57-3.87,3.65-1.8,1.08-4.14,1.83-7.09,1.71-1.48-.06-3.11-.33-4.9-.86-1.79-.53-3.72-1.34-5.94-2.42,0,0-.41,.82-1.33,1.89-.95,1.08-2.4,2.42-4.39,3.45-1.98,1.04-4.5,1.77-7.57,1.73-1.54-.02-3.21-.23-5.03-.67-1.82-.44-3.75-1.13-5.94-2.06"/>
        <path class="cls-2" d="M141.49,151.74s-1.45,3.46-5.08,5.49c-3.61,2.08-9.41,2.56-17.93-2.15,0,0-1.84,3.22-5.83,5.15-3.98,1.97-10.13,2.49-18.56-1.6"/>
        <path class="cls-2" d="M142.59,160s-1.62,3.42-5.34,5.33c-3.71,1.96-9.52,2.26-17.76-2.74,0,0-2,3.17-6.07,4.96-4.07,1.84-10.23,2.17-18.41-2.21"/>
        <path class="cls-2" d="M143.37,168.29s-.41,.84-1.28,1.9c-.86,1.06-2.24,2.35-4.15,3.25-1.9,.9-4.3,1.41-7.23,1.01-1.46-.2-3.06-.63-4.78-1.33-1.73-.71-3.67-1.68-5.73-2.98,0,0-.5,.77-1.51,1.76-.99,.98-2.56,2.17-4.65,3-2.08,.84-4.66,1.32-7.71,.98-1.53-.17-3.17-.54-4.93-1.16-1.76-.62-3.72-1.48-5.76-2.63"/>
        <path class="cls-2" d="M143.88,176.59s-1.8,3.3-5.61,4.97c-3.81,1.72-9.62,1.64-17.61-3.88,0,0-2.16,3.03-6.32,4.56-4.16,1.58-10.33,1.5-18.28-3.4"/>
        <path class="cls-2" d="M144.21,184.91s-1.96,3.24-5.85,4.79c-3.89,1.59-9.7,1.33-17.39-4.44,0,0-2.31,2.96-6.55,4.35-4.24,1.44-10.4,1.17-18.08-3.98"/>
        <path class="cls-2" d="M144.13,193.23s-1.97,3.18-5.86,4.6c-3.99,1.47-9.66,1.02-17.38-5,0,0-2.32,2.89-6.55,4.15-4.33,1.3-10.35,.84-18.09-4.57"/>
        <path class="cls-2" d="M143.86,201.54s-2.13,3.11-6.09,4.41c-3.97,1.34-9.75,.7-17.12-5.55,0,0-2.46,2.81-6.76,3.93-4.3,1.17-10.43,.5-17.85-5.14"/>
        <path class="cls-2" d="M143.35,209.84s-.52,.76-1.57,1.67c-1.07,.91-2.65,1.95-4.67,2.54-2.02,.59-4.47,.71-7.29-.16-1.41-.43-2.92-1.11-4.52-2.08-1.6-.97-3.25-2.24-5.12-3.86,0,0-.6,.69-1.78,1.49-1.2,.8-2.94,1.72-5.12,2.22-2.18,.5-4.8,.56-7.76-.26-1.48-.41-3.05-1.04-4.69-1.93-1.65-.89-3.33-2.05-5.21-3.51"/>
        <path class="cls-2" d="M142.5,218.12s-2.29,2.97-6.31,4.01c-4.02,1.09-9.75,.08-16.79-6.64,0,0-2.6,2.65-6.94,3.49-4.35,.89-10.43-.17-17.54-6.28"/>
        <path class="cls-2" d="M141.46,226.38s-2.44,2.89-6.52,3.8c-4.09,.95-9.78-.24-16.48-7.17,0,0-2.74,2.55-7.14,3.25-4.4,.75-10.44-.51-17.24-6.83"/>
        <path class="cls-2" d="M140.1,234.59s-.61,.71-1.73,1.51c-1.1,.81-2.77,1.7-4.85,2.08-2.07,.39-4.52,.27-7.25-.86-2.73-1.13-5.69-3.27-9.06-6.85,0,0-.68,.62-1.91,1.31-1.21,.7-3.03,1.44-5.26,1.72-2.22,.28-4.84,.09-7.7-1.01-2.87-1.1-5.94-3.11-9.37-6.38"/>
        <path class="cls-2" d="M138.47,242.76s-2.58,2.74-6.69,3.38c-4.12,.69-9.72-.87-16.04-8.24,0,0-2.86,2.38-7.28,2.8-4.42,.46-10.37-1.19-16.82-7.95"/>
        <path class="cls-2" d="M136.67,250.9s-2.73,2.64-6.89,3.14c-4.17,.55-9.72-1.2-15.68-8.74,0,0-2.99,2.27-7.45,2.53-4.46,.31-10.35-1.54-16.47-8.47"/>
        <path class="cls-2" d="M134.46,258.94s-2.72,2.58-6.85,2.95c-4.24,.39-9.59-1.5-15.51-9.29,0,0-2.97,2.2-7.39,2.33-4.53,.14-10.21-1.85-16.31-9.05"/>
        <path class="cls-2" d="M132.06,266.93s-2.86,2.47-7.03,2.7c-4.18,.28-9.6-1.84-15.11-9.78,0,0-3.1,2.08-7.54,2.05-4.46,.02-10.21-2.22-15.92-9.56"/>
        <path class="cls-2" d="M129.42,274.86s-.69,.61-1.96,1.21c-1.28,.6-3.07,1.21-5.17,1.25-2.1,.05-4.5-.47-7-2.04-1.25-.78-2.53-1.83-3.82-3.19-1.3-1.36-2.55-3-3.94-5.05,0,0-.75,.51-2.11,.98-1.36,.47-3.29,.9-5.52,.81-2.23-.09-4.78-.71-7.43-2.27-1.32-.78-2.67-1.79-4.03-3.08-1.37-1.29-2.68-2.83-4.12-4.73"/>
        <path class="cls-2" d="M126.42,282.66s-2.99,2.29-7.14,2.25c-4.17,0-9.43-2.48-14.47-10.81,0,0-3.2,1.88-7.61,1.56-4.43-.27-10.01-2.9-15.3-10.63"/>
        <path class="cls-2" d="M123.25,290.4s-3.12,2.17-7.3,1.97c-4.2-.15-9.36-2.82-14.01-11.26,0,0-3.32,1.75-7.74,1.26-4.44-.44-9.93-3.26-14.85-11.1"/>
        <path class="cls-2" d="M119.75,298.02s-3.07,2.11-7.28,1.78c-2.09-.16-4.41-.92-6.75-2.75-2.34-1.83-4.64-4.71-6.95-9.04,0,0-3.26,1.69-7.69,1.03-2.2-.32-4.66-1.2-7.14-3.03-2.48-1.83-4.96-4.57-7.4-8.62"/>
        <path class="cls-2" d="M116.01,305.61s-.81,.51-2.15,.96c-1.35,.45-3.22,.84-5.3,.6-2.1-.23-4.39-1.1-6.63-3.04-2.24-1.94-4.43-4.95-6.5-9.34,0,0-.84,.39-2.24,.66-1.4,.27-3.34,.43-5.52,.01-4.42-.83-9.56-4.09-14.05-12.13"/>
        <path class="cls-2" d="M111.78,313.25s-.86,.5-2.24,.91c-1.37,.41-3.29,.73-5.38,.39-2.09-.33-4.33-1.33-6.44-3.41-2.12-2.07-4.12-5.22-5.95-9.71,0,0-.87,.34-2.28,.54-1.4,.21-3.35,.25-5.51-.31-2.15-.55-4.5-1.7-6.79-3.76-2.29-2.05-4.53-4.98-6.64-9"/>
        <path class="cls-2" d="M106.93,320.89s-.9,.47-2.32,.82c-1.44,.35-3.4,.57-5.45,.11-2.07-.46-4.25-1.61-6.2-3.84-1.97-2.23-3.71-5.53-5.27-10.13,0,0-.88,.29-2.29,.4-1.43,.1-3.37,.01-5.46-.69-2.11-.71-4.36-2.05-6.5-4.24-2.15-2.2-4.2-5.24-6.13-9.3"/>
        <path class="cls-2" d="M101.39,328.46s-.97,.42-2.45,.69c-1.46,.27-3.46,.37-5.52-.26-2.05-.61-4.1-1.94-5.85-4.35-1.75-2.39-3.19-5.87-4.37-10.56,0,0-.92,.21-2.33,.21-1.41,0-3.34-.25-5.37-1.16-2.03-.89-4.14-2.42-6.1-4.79-.98-1.18-1.93-2.57-2.83-4.16-.91-1.6-1.79-3.44-2.64-5.45"/>
        <path class="cls-2" d="M94.96,335.8s-1.02,.36-2.53,.52c-1.55,.15-3.58,.08-5.55-.72-1.99-.8-3.92-2.34-5.39-4.91-.73-1.28-1.39-2.84-1.93-4.66-.54-1.82-.97-3.92-1.36-6.33,0,0-.92,.14-2.32,0-1.43-.16-3.31-.61-5.22-1.7-1.92-1.09-3.87-2.86-5.57-5.4-.85-1.26-1.67-2.75-2.44-4.41-.77-1.66-1.49-3.5-2.21-5.57"/>
        <path class="cls-2" d="M87.58,342.73s-1.09,.26-2.66,.27c-.78,0-1.68-.06-2.62-.25-.95-.2-1.94-.53-2.89-1.04-1.91-1.01-3.63-2.76-4.79-5.5-.58-1.37-1.03-2.99-1.34-4.85-.32-1.88-.53-4.05-.63-6.45,0,0-.95,.03-2.33-.27-.69-.15-1.49-.39-2.33-.75-.85-.37-1.76-.88-2.64-1.54-1.78-1.32-3.48-3.29-4.89-6.02-.71-1.36-1.35-2.9-1.94-4.61-.6-1.72-1.15-3.65-1.68-5.69"/>
      </g>
      <g>
        <path class="cls-2" d="M276.03,58.21s-2.33,2.18-6.37,2.81c-4.03,.59-9.79-.21-16.43-7.33,0,0-2.73,2.38-7.14,3.1-4.4,.67-10.51-.19-17.03-7.88"/>
        <path class="cls-2" d="M274.89,64.85s-2.35,2.24-6.42,2.99c-4.06,.71-9.84,.09-16.51-6.81,0,0-2.74,2.45-7.17,3.29-4.42,.8-10.55,.13-17.14-7.34"/>
        <path class="cls-2" d="M273.81,71.51s-2.2,2.32-6.19,3.2c-3.99,.84-9.79,.39-16.84-6.32,0,0-2.58,2.54-6.93,3.52-4.35,.94-10.5,.45-17.48-6.83"/>
        <path class="cls-2" d="M273.08,78.23s-2.21,2.38-6.22,3.38c-4.01,.95-9.81,.67-16.9-5.8,0,0-2.59,2.61-6.96,3.72-4.36,1.06-10.52,.76-17.55-6.29"/>
        <path class="cls-2" d="M272.4,84.96s-2.06,2.46-5.99,3.57c-3.93,1.08-9.75,.97-17.19-5.31,0,0-2.42,2.69-6.71,3.93-4.29,1.19-10.45,1.07-17.86-5.77"/>
        <path class="cls-2" d="M272.07,91.72s-2.07,2.51-6.01,3.74c-3.94,1.19-9.76,1.25-17.21-4.79,0,0-2.43,2.76-6.72,4.12-4.29,1.32-10.46,1.37-17.89-5.23"/>
        <path class="cls-2" d="M271.79,98.49s-1.91,2.58-5.77,3.93c-3.86,1.31-9.67,1.53-17.47-4.29,0,0-2.26,2.83-6.47,4.32-4.21,1.44-10.37,1.67-18.16-4.71"/>
        <path class="cls-2" d="M271.85,105.27s-1.92,2.63-5.78,4.09c-3.87,1.42-9.67,1.81-17.46-3.79,0,0-2.26,2.9-6.47,4.5-4.21,1.56-10.36,1.97-18.16-4.18"/>
        <path class="cls-2" d="M271.97,112.05s-1.76,2.69-5.54,4.26c-3.78,1.53-9.57,2.09-17.69-3.28,0,0-2.1,2.96-6.21,4.68-4.12,1.68-10.26,2.27-18.4-3.65"/>
        <path class="cls-2" d="M272.42,118.83s-1.76,2.74-5.54,4.42c-3.78,1.64-9.55,2.36-17.65-2.78,0,0-2.09,3.02-6.2,4.87-4.11,1.8-10.23,2.56-18.38-3.13"/>
        <path class="cls-2" d="M272.93,125.6s-1.6,2.79-5.29,4.57c-3.69,1.74-9.44,2.63-17.84-2.27,0,0-1.92,3.07-5.94,5.03-4.02,1.91-10.11,2.84-18.58-2.59"/>
        <path class="cls-2" d="M273.77,132.35s-1.6,2.84-5.28,4.73c-3.68,1.85-9.4,2.9-17.78-1.78,0,0-1.92,3.14-5.91,5.21-4,2.03-10.07,3.13-18.52-2.08"/>
        <path class="cls-2" d="M274.66,139.09s-1.44,2.87-5.02,4.86c-3.58,1.95-9.27,3.15-17.94-1.26,0,0-1.75,3.18-5.65,5.35-3.9,2.14-9.94,3.41-18.69-1.53"/>
        <path class="cls-2" d="M275.87,145.79s-1.44,2.93-5,5.03c-3.57,2.06-9.22,3.42-17.85-.78,0,0-1.74,3.24-5.61,5.53-3.88,2.25-9.88,3.69-18.61-1.03"/>
        <path class="cls-2" d="M277.15,152.47s-1.28,2.95-4.74,5.14c-3.47,2.15-9.08,3.67-17.99-.25,0,0-1.57,3.27-5.34,5.66-3.78,2.35-9.73,3.96-18.75-.48"/>
        <path class="cls-2" d="M278.73,159.09s-1.28,3.01-4.71,5.3c-3.45,2.25-9.01,3.93-17.87,.22,0,0-1.55,3.33-5.29,5.84-3.75,2.47-9.66,4.24-18.64,.01"/>
        <path class="cls-2" d="M280.38,165.69s-1.11,3.02-4.45,5.4c-3.34,2.34-8.86,4.17-17.97,.76,0,0-1.38,3.35-5.01,5.95-3.64,2.56-9.5,4.5-18.75,.57"/>
        <path class="cls-2" d="M282.34,172.21s-1.11,3.07-4.41,5.55c-3.32,2.44-8.78,4.43-17.83,1.22,0,0-1.36,3.41-4.96,6.13-3.61,2.67-9.4,4.77-18.61,1.05"/>
        <path class="cls-2" d="M284.35,178.72s-.94,3.07-4.14,5.63c-3.21,2.52-8.61,4.66-17.9,1.76,0,0-1.19,3.42-4.67,6.22-3.49,2.76-9.23,5.02-18.69,1.61"/>
        <path class="cls-2" d="M286.66,185.11s-.93,3.13-4.09,5.79c-3.17,2.62-8.52,4.92-17.73,2.22,0,0-1.17,3.48-4.61,6.39-3.45,2.87-9.12,5.29-18.52,2.1"/>
        <path class="cls-2" d="M289.04,191.49s-.77,3.12-3.81,5.86c-3.06,2.7-8.34,5.14-17.77,2.77,0,0-1,3.48-4.31,6.48-3.33,2.95-8.93,5.53-18.57,2.66"/>
        <path class="cls-2" d="M291.71,197.74s-.75,3.17-3.76,6.01c-3.02,2.8-8.23,5.39-17.58,3.22,0,0-.97,3.54-4.24,6.64-3.28,3.06-8.81,5.8-18.37,3.14"/>
        <path class="cls-2" d="M294.43,203.97s-.59,3.16-3.48,6.06c-2.9,2.86-8.03,5.6-17.59,3.77,0,0-.8,3.54-3.94,6.71-3.16,3.14-8.6,6.03-18.39,3.71"/>
        <path class="cls-2" d="M297.45,210.05s-.57,3.21-3.41,6.21c-2.86,2.97-7.91,5.85-17.36,4.21,0,0-.77,3.59-3.85,6.88-3.1,3.24-8.46,6.3-18.17,4.17"/>
        <path class="cls-2" d="M300.52,216.11s-.41,3.18-3.13,6.24c-2.73,3.03-7.7,6.06-17.34,4.77,0,0-.59,3.57-3.55,6.93-2.97,3.31-8.24,6.52-18.15,4.75"/>
        <path class="cls-2" d="M303.89,222s-.39,3.23-3.05,6.39c-2.68,3.12-7.55,6.3-17.09,5.21,0,0-.56,3.63-3.45,7.09-2.91,3.42-8.08,6.78-17.9,5.21"/>
        <path class="cls-2" d="M307.3,227.86s-.23,3.2-2.76,6.41c-2.55,3.18-7.33,6.5-17.04,5.78,0,0-.38,3.6-3.14,7.12-2.77,3.48-7.84,6.99-17.84,5.8"/>
        <path class="cls-2" d="M310.99,233.53s-.2,3.25-2.67,6.56c-2.5,3.28-7.17,6.73-16.75,6.21,0,0-.35,3.66-3.03,7.28-2.7,3.58-7.67,7.24-17.56,6.25"/>
        <path class="cls-2" d="M314.73,239.17s-.04,3.2-2.38,6.56c-2.36,3.32-6.93,6.92-16.66,6.78,0,0-.17,3.62-2.71,7.29-2.56,3.64-7.41,7.45-17.47,6.84"/>
        <path class="cls-2" d="M318.75,244.61s-.01,3.25-2.28,6.7c-2.3,3.42-6.75,7.15-16.35,7.2,0,0-.13,3.67-2.59,7.45-2.49,3.74-7.22,7.69-17.16,7.28"/>
        <path class="cls-2" d="M322.81,250.01s.15,3.19-1.98,6.68c-2.16,3.46-6.5,7.33-16.22,7.77,0,0,.05,3.62-2.26,7.44-2.34,3.79-6.95,7.89-17.03,7.88"/>
        <path class="cls-2" d="M327.14,255.18s.18,3.24-1.88,6.82c-2.09,3.55-6.31,7.55-15.88,8.18,0,0,.09,3.67-2.13,7.59-2.25,3.88-6.73,8.12-16.69,8.31"/>
      </g>
    </g>
  </g>
  <g>
    <path class="cls-8" d="M26.61,101.22s-3.53,6.31,.06,11.48c6.13,8.83,126.91,106.36,163.78,136.18,6.6,5.34,13.34,10.47,20.24,15.41,21.77,15.6,72.85,53.04,71.06,59.68,0,0,8,26.71,22.7,16.07l7.88-8.21c8.74-15.9-18.75-20.54-18.75-20.54-6.36,2.59-49.84-43.46-68.01-63.14-5.76-6.23-11.68-12.29-17.79-18.17C173.62,197.08,61.75,89.58,52.38,84.29c-11.06-6.24-25.37,16.17-25.37,16.17l-.41,.76Z"/>
    <path class="cls-8" d="M312.5,101.22s3.53,6.31-.06,11.48c-6.13,8.83-126.91,106.36-163.78,136.18-6.6,5.34-13.34,10.47-20.24,15.41-21.77,15.6-72.85,53.04-71.06,59.68,0,0-8,26.71-22.7,16.07l-7.88-8.21c-8.74-15.9,18.75-20.54,18.75-20.54,6.36,2.59,49.84-43.46,68.01-63.14,5.76-6.23,11.68-12.29,17.79-18.17,34.15-32.9,146.03-140.4,155.39-145.68,11.06-6.24,25.37,16.17,25.37,16.17l.41,.76Z"/>
  </g>
  <path class="cls-4" d="M138.4,356.89c-3.41-4.53-6.27-8.52-6.11-13.82,.07-2.33-1.1-3.62-3.14-4.73-2.97-1.64-5.66-3.8-8.53-5.64-2.5-1.6-3.34-3.89-2.87-6.65,.58-3.41-.07-6.58-1.16-9.81-5.86-17.21-11.61-34.46-17.45-51.69-7.69-22.67-15.42-45.31-23.14-67.97-.2-.57-.33-1.18-.6-1.72-1.16-2.34-.74-4.23,1.26-6,1.97-1.75,4.09-1.82,6.35-1.06,4.94,1.66,5.73,1.05,5.32-4.26-.04-.45-.11-.9-.17-1.35-.39-3.23,.44-4.22,3.71-3.96,1.94,.15,2.11-.69,1.61-2.13-.37-1.07-.89-2.09-1.31-3.14-1.65-4.16-2.04-8.25,.92-12.04,1.77-2.27,3.48-4.64,5.55-6.62,2.32-2.22,2.79-4.84,2.36-7.69-.34-2.22,.1-4.17,1.5-5.73,2.68-3,2.91-6.28,1.8-9.93-1.79-5.86-3.37-11.79-5.29-17.61-1.58-4.8-.55-8.84,3.48-11.91,3.16-2.41,4.63-8.36,2.87-11.92-1.06-2.15-3.08-4.2-3.19-6.38-.21-3.84,.19-7.88,1.24-11.59,4.37-15.45,9.09-30.81,13.66-46.2,1.4-4.72,2.75-9.45,4.17-14.17,.24-.79,.48-1.76,1.05-2.22,3.28-2.66,7.22-3.81,11.34-3.94,1.86-.06,2.85,1.73,2.87,3.54,.02,2.26-.16,4.53-.43,6.78-.41,3.37,2.23,7.39,5.56,8.02,.71,.13,1.75-.16,2.3-.64,2.26-1.99,4.42-4.12,6.58-6.23,4.37-4.25,9.31-7.35,15.48-8.29,.84-.13,1.84-1.03,2.25-1.83,3.12-6.14,3.08-6.1,9.96-5.69,3.79,.23,7.03,1.86,10.16,3.7,5.35,3.16,10.62,6.45,15.89,9.74,1.99,1.24,3.21,2.98,3.9,5.34,6.65,22.6,13.33,45.19,20.2,67.72,2.49,8.18,5.47,16.22,8.33,24.29,1.42,4.01,1.65,3.93,5.95,4.12,2.23,.1,4.43,.86,6.66,1.08,1.35,.14,2.91,.19,4.09-.35,3.58-1.63,6.71,.2,6.64,4.12,0,.23,.03,.47-.03,.68-2.23,7.24,1.23,13.67,3.08,20.26,1.31,4.68,5.92,5.85,10,2.66,2.65-2.07,5.34-2.6,8.24-1.34,1.66,.72,3.44,1.87,4.41,3.33,1.76,2.63,3.04,5.59,4.36,8.49,.79,1.74,.95,3.53-1.07,4.79-.48,.3-.8,.9-1.13,1.41-2.14,3.34-1.72,4.38,2.08,5.26,2.6,.6,5.42,1.02,6.19,4.17,.79,3.2-.49,5.97-2.89,7.92-2.19,1.77-4.72,3.21-7.27,4.41-1.7,.8-3.07,1.6-4.13,3.27-3.27,5.11-7.36,9.57-12.72,12.45-6.35,3.41-10.87,8.17-13.72,14.81-2.27,5.29-3.66,4.23-6.7,.56-3.65-4.42-10.32-3.86-12.74,1.3-.97,2.07-2.04,3.77-4.19,4.8-.82,.39-1.36,1.52-1.88,2.4-1.62,2.72-3.04,5.57-4.77,8.22-1.71,2.61-4.3,3.17-7.23,2.38-.44-.12-.87-.25-1.31-.39-4.58-1.46-4.46-1.43-5.89,3.1-.45,1.42-1.59,2.77-2.74,3.8-3.15,2.83-4.61,5.96-3.23,10.28,1.39,4.36-.23,8.51-2.2,12.23-1.51,2.84-4.9,3.38-7.92,3.84-3.12,.48-3.84,1.28-4.74,4.24-.67,2.18-1.77,4.28-3.01,6.21-1.17,1.82-3.12,2.52-5.33,2.45-1.67-.06-3.34-.04-5.01-.02-2.33,.04-3.35,.93-3.46,3.27-.08,1.74,.17,3.49,.14,5.23-.03,1.65,.06,3.88-1.93,4.12-2.08,.25-2.23-2.01-2.65-3.58-.18-.66-.26-1.34-.44-2-.89-3.13-3.34-4.09-5.83-1.99-3.71,3.12-7.23,6.47-10.78,9.78-.5,.47-.98,1.32-.93,1.96,.25,3.58,.08,7.31,4.06,9.4,1.95,1.03,1.98,2.43,.56,4.12-.05,.06-.09,.13-.15,.17-5.38,3.33-6.54,8.94-7.91,14.47-.42,1.69-.86,3.41-1.61,4.96-3.34,6.87-4.7,14.18-5.39,21.71-.2,2.14-1.05,4.22-1.74,6.88Z"/>
  <text class="cls-3" transform="translate(29.92 241.36) rotate(18.07)"><tspan x="0" y="0">W</tspan></text>
  <text class="cls-3" transform="translate(81.31 257.29) rotate(11.12)"><tspan x="0" y="0">o</tspan></text>
  <text class="cls-3" transform="translate(112.11 263.23) rotate(5.92)"><tspan x="0" y="0">o</tspan></text>
  <text class="cls-3" transform="translate(143.44 266.41) rotate(.44)"><tspan x="0" y="0">d</tspan></text>
  <text class="cls-3" transform="translate(177.12 266.44) rotate(-4.86)"><tspan x="0" y="0">s</tspan></text>
  <text class="cls-3" transform="translate(206.5 264.08) rotate(-10.73)"><tspan x="0" y="0">m</tspan></text>
  <text class="cls-3" transform="translate(246.2 256.11) rotate(-16.34)"><tspan x="0" y="0">e</tspan></text>
  <text class="cls-3" transform="translate(272.96 248.26) rotate(-21.1)"><tspan x="0" y="0">n</tspan></text>
  <text class="cls-6" transform="translate(67.08 195.59)"><tspan x="0" y="0">Maine</tspan></text>
</svg>